<?xml version="1.0" standalone="no"?><!DOCTYPE svg PUBLIC "-//W3C//DTD SVG 1.1//EN" "http://www.w3.org/Graphics/SVG/1.1/DTD/svg11.dtd"><svg t="1764645640413" class="icon" viewBox="0 0 1024 1024" version="1.1" xmlns="http://www.w3.org/2000/svg" p-id="7306" xmlns:xlink="http://www.w3.org/1999/xlink" width="30" height="30"><path d="M485.13024 552.26823111a268.26069333 268.26069333 0 1 0 536.59420445 0 268.26069333 268.26069333 0 0 0-536.59420445 0z" fill="#eeecec" p-id="7307"></path><path d="M94.75413333 392.14193778l7.28177778 0.29127111a92.26012445 92.26012445 0 0 1 33.86026667 174.61703111l-4.00497778 1.74762667 0.14563555 115.34336c0 3.34961778 1.23790222 6.5536 2.91271112 8.81095111l1.89326222 1.89326222 2.40298666 1.60199111 338.89393778 190.78257778c3.78652445 2.18453333 8.30122667 2.47580445 10.92266667 1.38353778l3.05834667-1.45635556 337.21912888-190.56412444a13.98101333 13.98101333 0 0 0 6.99050667-9.61194667l0.29127111-2.83989333v-39.90414222c0-18.93262222 13.39847111-35.02535111 33.93308445-38.73905778l5.09724444-0.36408889c21.55406222 0 39.03032889 17.47626667 39.03032889 39.03032889v40.04977778c0 33.20490667-17.91317333 63.93400889-46.82183111 80.31800888l-337.29194667 190.63694222a92.26012445 92.26012445 0 0 1-90.73095111 0.14563556l-338.89393777-190.78257778a92.26012445 92.26012445 0 0 1-47.04028445-80.39082666V567.26869333l-5.24288-2.69425778a92.33294222 92.33294222 0 0 1-46.23928889-85.34243555l0.72817778-7.64586667a92.26012445 92.26012445 0 0 1 91.60476444-79.37137778z m435.8144-377.92426667l337.29194667 190.63694222c28.98147555 16.384 46.89464889 47.11310222 46.89464889 80.39082667l-0.07281778 115.48899555 5.09724444 2.54862223c30.58346667 16.52963555 49.66172445 49.37045333 48.2053689 84.90552889l-0.58254223 7.71868444a92.26012445 92.26012445 0 1 1-136.02360889-92.47857778l5.09724445-2.54862222 0.14563555-115.63463111a15.00046222 15.00046222 0 0 0-2.91271111-8.81095111l-1.89326222-1.89326222-2.40298667-1.60199112-337.29194666-190.78257777a13.98101333 13.98101333 0 0 0-11.14112-1.31072l-2.83989334 1.31072-338.89393778 190.78257777a13.98101333 13.98101333 0 0 0-6.99050666 9.46631112l-0.21845334 2.91271111v39.03032889a39.10314667 39.10314667 0 0 1-35.53507555 39.46723555 39.3216 39.3216 0 0 1-42.23431111-34.07872l-0.36408889-5.09724444v-39.3216c0-33.35054222 17.98599111-64.07964445 47.04028445-80.46364445l338.89393777-190.78257778c28.18048-15.80145778 62.62328889-15.72864 90.73095111 0.14563556z m-435.88721778 434.72213334a35.53507555 35.53507555 0 1 0 0 70.99733333 35.53507555 35.53507555 0 0 0 0-70.99733333z m781.04348445 0a35.53507555 35.53507555 0 1 0 0 70.99733333 35.53507555 35.53507555 0 0 0 0-70.99733333z" fill="#5ea4f4" p-id="7308"></path><path d="M484.03797333 556.41884445H358.50012445l-23.52014223 69.97788444H260.48739555l121.6056889-340.64156444h80.46364444l120.65905778 340.7872H505.95612445l-21.84533334-70.12352z m-19.80643555-58.6911289l-42.5984-134.05752888-43.90912 133.98471111h86.50752z m156.63104-211.9725511h70.77888v340.7872h-70.77888v-340.7872z" fill="#5ea4f4" p-id="7309"></path></svg>